<?xml version="1.0" standalone="no"?>
<!DOCTYPE svg PUBLIC "-//W3C//DTD SVG 1.1//EN" "http://www.w3.org/Graphics/SVG/1.1/DTD/svg11.dtd">
<svg width="148" height="55" viewBox="-4 -23 148 55" xmlns="http://www.w3.org/2000/svg" version="1.1">
<title>OpenSCAD Model</title>
<path d="
M 114.507,31.4345 L 114.893,31.2937 L 116.111,30.7335 L 116.153,30.7041 L 116.21,30.6584 L 116.27,30.6044
 L 119.156,27.9084 L 119.21,27.8555 L 119.249,27.8127 L 119.265,27.7875 L 119.434,27.4428 L 119.455,27.0597
 L 119.326,26.6965 L 119.066,26.4085 L 118.352,26 L 118.505,25.8126 L 118.817,25.4438 L 119.158,25.0506
 L 119.581,24.5779 L 119.982,24.1395 L 120.359,23.7355 L 120.814,23.2564 L 121.294,22.7594 L 121.848,22.1963
 L 122.373,21.6713 L 122.871,21.1797 L 123.435,20.6301 L 124.058,20.033 L 124.61,19.5097 L 125.252,18.9102
 L 125.863,18.3469 L 126.48,17.7858 L 127.072,17.2537 L 127.695,16.7019 L 128.315,16.1605 L 128.929,15.6322
 L 129.551,15.1061 L 129.788,14.9083 L 129.854,14.9303 L 129.927,14.9454 L 130.001,14.9504 L 130.065,14.9473
 L 131.469,14.7196 L 132.91,15.4224 L 132.888,15.5253 L 133.224,15.7051 L 133.1,15.9153 L 133.011,16.0586
 L 133.282,15.8802 L 133.283,15.8857 L 134.256,15.2548 L 135.579,14.3825 L 136.26,13.925 L 137.758,12.5191
 L 143.506,6.53969 L 138.174,0.634796 L 132.997,2.35463 L 132.914,2.31538 L 132.544,2.15173 L 132.481,2.14258
 L 132.372,2.12022 L 132.144,2.12402 L 131.877,2.16975 L 131.558,2.25145 L 131.309,2.33669 L 131.195,2.3717
 L 131.045,2.42737 L 130.747,2.5123 L 130.492,2.59328 L 130.214,2.67163 L 129.612,2.85661 L 129.086,3.0295
 L 128.93,3.06084 L 128.059,3.24683 L 127.28,3.42169 L 125.943,3.60992 L 125.38,3.69188 L 124.353,3.76117
 L 123.37,3.73482 L 122.68,3.71407 L 121.478,3.61948 L 120.497,3.53711 L 119.967,3.49048 L 119.5,3.42709
 L 118.469,3.2813 L 117.438,3.11809 L 116.469,2.91145 L 115.455,2.68976 L 115.109,2.61229 L 114.452,2.42723
 L 113.457,2.14066 L 112.996,2.00459 L 112.48,1.8174 L 111.523,1.46173 L 111.177,1.33 L 111.041,1.30788
 L 110.561,1.21756 L 109.414,0.976303 L 109.221,0.929993 L 107.871,0.578674 L 107.331,0.428497 L 107.015,0.326553
 L 106.396,0.453552 L 104.757,0.669083 L 103.15,0.75737 L 101.583,0.718048 L 100.061,0.5513 L 99.7269,0.48465
 L 89.7397,-4.51683 L 88.868,-5.33054 L 87.9566,-6.33372 L 87.4105,-7.04518 L 87.1111,-7.35542 L 87.0533,-7.4258
 L 87.0239,-7.61601 L 86.9503,-8.02527 L 86.8627,-8.45456 L 86.7602,-8.90471 L 86.6781,-9.23228 L 86.6485,-9.37589
 L 86.5683,-9.7278 L 86.5329,-9.90196 L 86.4278,-10.3814 L 86.299,-10.9209 L 86.2748,-11.015 L 86.1752,-11.4721
 L 86.0413,-12.0388 L 85.8987,-12.5975 L 85.8762,-12.6318 L 85.685,-13.0238 L 85.4856,-13.4031 L 85.3246,-13.6863
 L 85.2966,-13.757 L 85.1455,-14.1059 L 84.9932,-14.4272 L 84.841,-14.7215 L 84.7249,-15.019 L 84.6062,-15.2903
 L 84.4855,-15.5349 L 84.413,-15.6638 L 84.3762,-15.7654 L 84.2823,-15.9875 L 84.1853,-16.182 L 84.0855,-16.3481
 L 84.0059,-16.4549 L 83.989,-16.4922 L 83.9089,-16.6298 L 83.8248,-16.7363 L 83.737,-16.8107 L 83.646,-16.8524
 L 83.5522,-16.8609 L 83.5292,-16.855 L 83.4681,-16.8526 L 83.3833,-16.8127 L 83.2944,-16.7358 L 83.2019,-16.622
 L 82.9852,-16.3207 L 81.9946,-15.2519 L 80.8152,-14.2559 L 79.5208,-13.4076 L 79.2928,-13.2947 L 65.8934,-13.5367
 L 65.6788,-13.6528 L 64.4028,-14.5567 L 63.9003,-15.0132 L 63.8863,-15.3889 L 63.8613,-15.8733 L 63.8473,-16.0772
 L 63.8344,-16.2333 L 63.8162,-16.4046 L 63.7993,-16.5267 L 63.7817,-16.6204 L 63.7659,-16.6798 L 63.7469,-16.7198
 L 63.5663,-16.9187 L 62.7744,-18.0267 L 62.7514,-18.0394 L 62.7278,-18.0178 L 61.8969,-16.9405 L 60.736,-15.7522
 L 59.4409,-14.7038 L 58.0232,-13.8068 L 57.778,-13.689 L 43.8421,-13.9426 L 43.6108,-14.0641 L 42.2304,-15.0093
 L 40.9677,-16.1101 L 40.8244,-16.2679 L 40.7935,-16.2924 L 40.7675,-16.2852 L 40.7466,-16.2461 L 40.7308,-16.1754
 L 40.7283,-16.1507 L 39.7386,-16.9214 L 38.7705,-17.8761 L 38.7327,-17.8878 L 38.7001,-17.8656 L 38.0697,-16.6608
 L 37.127,-15.2797 L 36.0298,-14.018 L 34.7928,-12.8925 L 34.4878,-12.6741 L 20.9511,-10.5573 L 20.5944,-10.672
 L 19.4411,-11.1981 L 12.2117,-16.9376 L 9.16324,-21.4136 L 5.23679,-22.1735 L 3.92256,-16.1548 L 0.299103,2.56749
 L -0.350677,5.97173 L -0.805847,8.39494 L -1.23447,10.7108 L -1.68039,13.1648 L -1.98557,14.8764 L -2.33401,16.8828
 L -2.58727,18.3937 L -2.66704,18.8831 L -2.78589,19.6396 L -2.84514,20.0284 L -2.91232,20.493 L -2.96454,20.8829
 L -3.04485,21.5553 L -3.48299,25.3436 L 0.443451,26.1035 L 7.56987,21.0671 L 15.4549,18.9456 L 34.8456,15.9133
 L 34.8524,15.9367 L 35.0903,16.6055 L 35.4421,17.2053 L 35.9681,17.805 L 36.6552,18.39 L 36.9439,18.6292
 L 37.6128,19.0763 L 38.3813,19.489 L 39.2304,19.857 L 40.1393,20.1713 L 40.627,20.3068 L 41.8033,20.6211
 L 42.997,20.8513 L 44.1789,20.9917 L 45.4938,21.0723 L 46.8295,21.1275 L 47.0163,21.1193 L 47.1365,21.3423
 L 47.231,21.4688 L 47.3297,21.5499 L 48.0309,21.4858 L 49.3248,21.3541 L 51.1032,21.0013 L 52.2422,20.7033
 L 53.8529,20.181 L 55.2282,19.5095 L 56.129,19.0669 L 57.1901,18.2847 L 57.513,18.0028 L 61.7797,18.0045
 L 63.1239,17.9197 L 63.194,17.7854 L 63.2033,17.7209 L 63.2148,17.747 L 65.1501,17.6238 L 70.1123,16.9799
 L 74.6468,16.0497 L 78.1376,14.9995 L 95.361,15.3107 L 95.5998,15.4356 L 95.9019,15.6042 L 96.3701,15.8467
 L 96.5861,15.9468 L 97.5644,16.4418 L 97.6251,16.4706 L 98.0197,16.6769 L 98.7128,17.0048 L 99.7957,17.5675
 L 99.8331,17.5852 L 100.989,18.1848 L 101.688,18.5774 L 102.169,18.8271 L 103.369,19.5012 L 103.688,19.693
 L 104.588,20.2001 L 105.88,20.9801 L 107.059,21.6632 L 108.009,22.245 L 108.231,22.3737 L 108.303,22.4134
 L 109.532,23.1181 L 111.412,24.9095 L 112.085,27.8057 L 112.183,27.8025 L 113.089,29.7406 L 113.417,31.1916
 L 113.471,31.3688 L 113.487,31.406 L 113.504,31.4387 L 113.867,31.4554 z
M 120.151,12.9866 L 120.173,12.9857 L 120.117,13.0374 z
" stroke="black" fill="lightgray" stroke-width="0.5"/></svg>
